<?xml version="1.0" encoding="utf-8"?>
<!-- Generator: Adobe Illustrator 23.0.1, SVG Export Plug-In . SVG Version: 6.00 Build 0)  -->
<svg version="1.1" id="Layer_2" xmlns="http://www.w3.org/2000/svg" xmlns:xlink="http://www.w3.org/1999/xlink" x="0px" y="0px"
	 viewBox="0 0 8192 1024" style="enable-background:new 0 0 8192 1024;" xml:space="preserve">
<style type="text/css">
	.st0{fill:#FFFFFF;}
	.st1{font-family:'Helvetica-Light';}
	.st2{font-size:1000px;}
</style>
<g>
	<path class="st0" d="M662.4,255.7l-0.2,49.4h64.3c11.4,0,24.7,3.9,35.8,10.4c10.1,6,14.3,11.8,15.4,13.8V937
		c0,5.4-5.3,10.5-7.6,12.4c-8,6.7-19.8,10.6-32.2,10.6H286.3c-12.4,0-24.2-3.9-32.2-10.6c-2.3-1.9-7.6-7-7.6-12.4V329.3
		c1-2,5.3-7.8,15.4-13.8c11-6.5,24.4-10.4,35.8-10.4h64.3l-0.2-49.4H662.4 M726.7,191.7H297.3l0.2,49.4c-54.2,0-115.1,39.1-115.1,87
		V937c0,47.8,46.7,87,103.8,87h451.5c57.1,0,103.8-39.1,103.8-87V328.1c0-47.8-60.9-87-115.1-87L726.7,191.7L726.7,191.7z"/>
</g>
<path class="st0" d="M736.6,89.9l-433.1,54.9c-10.6,1.3-20.6-4.8-22.2-13.7L271,73.7c-1.6-8.9,5.7-17.2,16.3-18.6L720.4,0.2
	C731-1.2,741,5,742.6,13.9L753,71.3C754.6,80.2,747.2,88.5,736.6,89.9z"/>
<text transform="matrix(1 0 0 1 1232.9171 912.854)" class="st0 st1 st2">SiteFund</text>
</svg>
