<?xml version="1.0" encoding="utf-8"?>
<!-- Generator: Adobe Illustrator 23.0.1, SVG Export Plug-In . SVG Version: 6.00 Build 0)  -->
<svg version="1.1" id="Layer_1" xmlns="http://www.w3.org/2000/svg" xmlns:xlink="http://www.w3.org/1999/xlink" x="0px" y="0px"
	 viewBox="0 0 1024 1024" style="enable-background:new 0 0 1024 1024;" xml:space="preserve">
<style type="text/css">
	.st0{fill:#FFFFFF;}
	.st1{fill:#88CEFF;}
</style>
<g>
	<path class="st0" d="M260.39,607.2c-4.62,30.38-2.68,55.04,5.83,73.99c16.52,35.48,55.16,53.22,115.91,53.22
		c27.21,0,52.85-3.88,76.91-11.66c46.41-15.06,73.75-42.04,82.01-80.92c6.32-29.16,1.58-49.94-14.22-62.33
		c-15.8-12.15-42.41-22.72-79.83-31.71l-69.25-16.4c-44.96-10.69-75.94-22.47-92.95-35.36c-29.16-22.35-39-55.77-29.52-100.24
		c10.21-48.11,35.23-87.6,75.09-118.46c39.85-30.86,90.27-46.29,151.27-46.29c56.13,0,100.9,13.55,134.32,40.64
		c33.41,27.1,43.8,70.41,31.16,129.94h-68.16c2.43-28.67-0.61-50.67-9.11-65.97c-16.28-27.94-50.91-41.92-103.88-41.92
		c-42.77,0-75.39,8.99-97.87,26.97c-22.48,17.99-36.27,38.88-41.37,62.69c-5.59,26.24,1.21,45.44,20.41,57.59
		c12.63,7.78,43.01,17.5,91.12,29.16l71.44,17.13c34.5,8.26,60.02,19.56,76.54,33.9c28.92,25.03,38.27,61.36,28.07,108.98
		c-12.64,59.29-43.26,101.7-91.85,127.21c-48.6,25.51-101.46,38.27-158.56,38.27c-66.58,0-115.06-17.01-145.43-51.03
		c-30.38-33.77-39.13-79.58-26.24-137.42H260.39z"/>
</g>
<g>
	<path class="st1" d="M320.95,876.47l148.05-696.72h449l-11.61,56.12H523.2l-54.19,251.59h348.36l-11.61,56.12H457.39l-70.64,332.88
		H320.95z"/>
</g>
</svg>
