<?xml version="1.0" encoding="utf-8"?>
<!-- Generator: Adobe Illustrator 23.0.1, SVG Export Plug-In . SVG Version: 6.00 Build 0)  -->
<svg version="1.1" xmlns="http://www.w3.org/2000/svg" xmlns:xlink="http://www.w3.org/1999/xlink" x="0px" y="0px"
	 viewBox="0 0 1024 1024" style="enable-background:new 0 0 1024 1024;" xml:space="preserve">
<style type="text/css">
	.st0{fill:#FFFFFF;}
	.st1{fill:#00003F;}
	.st2{fill:#0057C0;}
</style>
<g id="Layer_2">
	<rect class="st0" width="1024" height="1024"/>
</g>
<g id="Layer_1">
	<g>
		<path class="st1" d="M168.21,624.13c-5.51,34.33-3.19,62.21,6.96,83.63c19.72,40.1,65.83,60.15,138.33,60.15
			c32.47,0,63.07-4.39,91.78-13.18c55.39-17.03,88.01-47.51,97.87-91.46c7.54-32.96,1.88-56.44-16.96-70.45
			c-18.85-13.73-50.61-25.68-95.26-35.84l-82.65-18.54c-53.65-12.08-90.63-25.4-110.92-39.96c-34.8-25.26-46.54-63.03-35.23-113.29
			c12.18-54.38,42.04-99.01,89.61-133.89c47.56-34.88,107.73-52.32,180.52-52.32c66.99,0,120.42,15.31,160.29,45.93
			c39.87,30.63,52.27,79.58,37.19,146.87h-81.34c2.9-32.4-0.73-57.26-10.87-74.57c-19.43-31.58-60.76-47.38-123.97-47.38
			c-51.04,0-89.97,10.16-116.79,30.49c-26.83,20.33-43.28,43.95-49.37,70.86c-6.67,29.66,1.45,51.36,24.36,65.09
			c15.08,8.79,51.33,19.77,108.75,32.96l85.26,19.36c41.17,9.34,71.62,22.11,91.35,38.31c34.51,28.29,45.67,69.35,33.49,123.18
			c-15.08,67.02-51.62,114.94-109.62,143.78c-58,28.84-121.08,43.26-189.22,43.26c-79.46,0-137.31-19.22-173.56-57.68
			c-36.25-38.17-46.69-89.94-31.32-155.31H168.21z"/>
	</g>
	<g>
		<path class="st2" d="M292.49,928.47L469.17,141h535.83l-13.86,63.43h-457.3L469.17,488.8H884.9l-13.86,63.43H455.32l-84.3,376.23
			H292.49z"/>
	</g>
	<polygon class="st1" points="417.17,141.29 240.55,927.94 319.31,927.94 495.93,141.29 	"/>
</g>
</svg>
